<svg xmlns="http://www.w3.org/2000/svg" width="256" height="256" viewBox="0 0 100 100"><rect width="100" height="100" rx="20" fill="#2f6ac2"></rect><path fill="#f2f3f4" d="M75.20 68L75.20 80.15Q55.13 81.95 41.90 81.95L41.90 81.95Q33.08 81.95 28.94 77.81Q24.80 73.67 24.80 64.85L24.80 64.85L24.80 36.05Q24.80 26.60 29.08 22.33Q33.35 18.05 42.80 18.05L42.80 18.05L75.20 18.05L75.20 30.65L46.40 30.65Q41 30.65 41 36.05L41 36.05L41 64.85Q41 66.92 42.22 68.13Q43.43 69.35 45.32 69.35Q47.21 69.35 49.46 69.30Q51.71 69.26 54.14 69.17Q56.57 69.08 59.05 68.99Q61.52 68.90 65.44 68.63Q69.35 68.36 75.20 68L75.20 68Z"></path></svg>